<svg width="510" height="510" viewBox="0 0 510 510" fill="none" xmlns="http://www.w3.org/2000/svg">
<rect x="2" y="2" width="506" height="482" rx="13" fill="#D9D9D9" stroke="black" stroke-width="4"/>
<rect x="30" y="25" width="121" height="126" rx="15" fill="#FF8800"/>
<rect x="195" y="25" width="121" height="126" rx="15" fill="#FF9C2B"/>
<rect x="358" y="25" width="121" height="126" rx="15" fill="#FFB45E"/>
<rect x="30" y="180" width="121" height="126" rx="15" fill="#FFA238"/>
<rect x="195" y="180" width="121" height="126" rx="15" fill="#FFBB6E"/>
<rect x="358" y="180" width="121" height="126" rx="15" fill="#FFD7A9"/>
<rect x="31" y="331" width="121" height="126" rx="15" fill="#FFBD71"/>
<rect x="31" y="331" width="121" height="126" rx="15" fill="#FFBD71"/>
<rect x="196" y="331" width="121" height="126" rx="15" fill="#FFCE97"/>
<rect x="359" y="331" width="121" height="126" rx="15" fill="#FFE6CA"/>
<path d="M306.912 153H306.929C317.956 153 327.15 161.686 327.922 172.918V172.919C329.244 192.098 331.01 219.015 332.616 242.382C334.215 265.628 335.654 285.357 336.308 289.774L336.729 292.623L339.251 291.233C344.027 288.602 350.908 285.75 358.327 285.75C360.639 285.75 362.881 286.026 364.985 286.567L364.991 286.568C372.621 288.51 378.987 293.853 383.861 302.834L384.719 304.413L386.38 303.73C390.076 302.211 395.514 300.537 401.509 300.537C405.059 300.537 408.415 301.135 411.471 302.3L411.472 302.301C419.254 305.263 425.302 311.762 429.335 322.049L429.748 323.103L430.863 323.291C437.324 324.384 452.116 328.068 461.687 339.653V339.654C467.629 346.895 469.057 355.964 469.773 367.29L469.908 369.585C470.885 387.871 473.357 444.655 451.45 498.328C450.586 500.439 449.376 504.229 448.231 507.999H307.523C301.634 497.977 292.162 481.576 282.207 464.349C271.923 446.551 261.125 427.874 253.245 414.471L253.244 414.47C249.801 408.621 246.713 402.177 246.107 394.934C245.508 387.763 247.327 379.593 254.112 370.252C256.911 366.4 261.568 363.233 266.715 360.531C271.887 357.816 277.125 355.77 281.254 353.864L282.365 353.352L282.414 352.129C282.914 339.686 285.037 257.718 285.434 174.738V174.737C285.482 162.69 295.11 153 306.912 153Z" fill="#CD8E61" stroke="black" stroke-width="4"/>
</svg>
