<svg width="510" height="512" viewBox="0 0 510 512" fill="none" xmlns="http://www.w3.org/2000/svg">
<rect width="510" height="486" rx="15" fill="#333333"/>
<rect x="30" y="25" width="121" height="126" rx="15" fill="white"/>
<rect x="27" y="22" width="121" height="126" rx="15" fill="#FF8800"/>
<rect x="195" y="25" width="121" height="126" rx="15" fill="white"/>
<rect x="192" y="22" width="121" height="126" rx="15" fill="#FF9C2B"/>
<rect x="358" y="25" width="121" height="126" rx="15" fill="white"/>
<rect x="355" y="22" width="121" height="126" rx="15" fill="#FFB45E"/>
<rect x="30" y="180" width="121" height="126" rx="15" fill="white"/>
<rect x="27" y="177" width="121" height="126" rx="15" fill="#FFA238"/>
<rect x="195" y="180" width="121" height="126" rx="15" fill="white"/>
<rect x="192" y="177" width="121" height="126" rx="15" fill="#FFBB6E"/>
<rect x="358" y="180" width="121" height="126" rx="15" fill="white"/>
<rect x="355" y="177" width="121" height="126" rx="15" fill="#FFD7A9"/>
<rect x="31" y="331" width="121" height="126" rx="15" fill="#FFBD71"/>
<rect x="31" y="331" width="121" height="126" rx="15" fill="white"/>
<g filter="url(#filter0_d_68_2)">
<circle cx="298" cy="182" r="16" fill="#D9D9D9"/>
</g>
<rect x="28" y="328" width="121" height="126" rx="15" fill="#FFBD71"/>
<rect x="196" y="331" width="121" height="126" rx="15" fill="white"/>
<rect x="193" y="328" width="121" height="126" rx="15" fill="#FFCE97"/>
<rect x="359" y="331" width="121" height="126" rx="15" fill="white"/>
<rect x="356" y="328" width="121" height="126" rx="15" fill="#FFE6CA"/>
<path d="M449.713 509.999C450.982 505.767 452.372 501.357 453.301 499.085C475.39 444.969 472.884 387.792 471.905 369.476C471.226 357.113 470.034 346.672 463.232 338.385C453.187 326.22 437.778 322.433 431.197 321.319C427.016 310.656 420.625 303.644 412.183 300.431C408.884 299.173 405.284 298.537 401.509 298.537C395.161 298.537 389.455 300.303 385.619 301.88C380.548 292.535 373.779 286.741 365.484 284.63C363.208 284.045 360.798 283.75 358.328 283.75C350.428 283.75 343.199 286.774 338.286 289.481C337.008 280.848 332.555 211.05 329.917 172.781C329.075 160.528 319.034 151 306.928 151H306.912C293.98 151 283.486 161.609 283.433 174.729C283.037 257.692 280.914 339.636 280.416 352.049C272.476 355.714 258.647 360.607 252.494 369.076C238.422 388.448 244.544 403.632 251.521 415.485C267.271 442.276 294.697 490.161 306.378 509.999H449.713Z" fill="white"/>
<path d="M444.713 511.999C445.982 507.767 447.372 503.357 448.301 501.085C470.39 446.969 467.884 389.792 466.905 371.476C466.226 359.113 465.034 348.672 458.232 340.385C448.187 328.22 432.778 324.433 426.197 323.319C422.016 312.656 415.625 305.644 407.183 302.431C403.884 301.173 400.284 300.537 396.509 300.537C390.161 300.537 384.455 302.303 380.619 303.88C375.548 294.535 368.779 288.741 360.484 286.63C358.208 286.045 355.798 285.75 353.328 285.75C345.428 285.75 338.199 288.774 333.286 291.481C332.008 282.848 327.555 213.05 324.917 174.781C324.075 162.528 314.034 153 301.928 153H301.912C288.98 153 278.486 163.609 278.433 176.729C278.037 259.692 275.914 341.636 275.416 354.049C267.476 357.714 253.647 362.607 247.494 371.076C233.422 390.448 239.544 405.632 246.521 417.485C262.271 444.276 289.697 492.161 301.378 511.999H444.713Z" fill="#CD8E61"/>
<path d="M317 180C317 198 317 198 302 198C287 198 287 198 287 180C287 170.059 293.716 162 302 162C310.284 162 317 170.059 317 180Z" fill="#D7AE87"/>
<defs>
<filter id="filter0_d_68_2" x="179" y="67" width="238" height="238" filterUnits="userSpaceOnUse" color-interpolation-filters="sRGB">
<feFlood flood-opacity="0" result="BackgroundImageFix"/>
<feColorMatrix in="SourceAlpha" type="matrix" values="0 0 0 0 0 0 0 0 0 0 0 0 0 0 0 0 0 0 127 0" result="hardAlpha"/>
<feMorphology radius="100" operator="dilate" in="SourceAlpha" result="effect1_dropShadow_68_2"/>
<feOffset dy="4"/>
<feGaussianBlur stdDeviation="1.5"/>
<feComposite in2="hardAlpha" operator="out"/>
<feColorMatrix type="matrix" values="0 0 0 0 1 0 0 0 0 1 0 0 0 0 1 0 0 0 0.05 0"/>
<feBlend mode="normal" in2="BackgroundImageFix" result="effect1_dropShadow_68_2"/>
<feBlend mode="normal" in="SourceGraphic" in2="effect1_dropShadow_68_2" result="shape"/>
</filter>
</defs>
</svg>
